<svg version="1.2" xmlns="http://www.w3.org/2000/svg" viewBox="0 0 1482 844" width="1482" height="844">
	<title>675d71fe26f6a4d4f6f40752_comics-bg</title>
	<defs>
		<clipPath clipPathUnits="userSpaceOnUse" id="cp1">
			<path d="m0 0h1482v844h-1482z"/>
		</clipPath>
	</defs>
	<style>
		.s0 { opacity: .25;fill: #160000 } 
		.s1 { fill: #160000 } 
	</style>
	<g id="Clip-Path" clip-path="url(#cp1)">
		<g>
			<path class="s0" d="m-60.2 38c600.2 200.7 940 0 1542.4 0v943c-615.9-202.5-940.1 0-1542.4 0 0 0-600.3-1143.8 0-943z"/>
			<path class="s0" d="m-60.2 29.6c600.2 200.8 940 0 1542.4 0v943.1c-615.9-202.6-940.1 0-1542.4 0 0 0-600.3-1143.8 0-943.1z"/>
			<path class="s0" d="m-60.2 38c600.2 200.7 940 0 1542.4 0v943c-615.9-202.5-940.1 0-1542.4 0 0 0-600.3-1143.8 0-943z"/>
			<path class="s0" d="m-60.2 29.6c600.2 200.8 940 0 1542.4 0v943.1c-615.9-202.6-940.1 0-1542.4 0 0 0-600.3-1143.8 0-943.1z"/>
			<path class="s0" d="m-60.2 10.5c600.2 200.7 940 0 1542.4 0v943c-615.9-202.5-940.1 0-1542.4 0 0 0-600.3-1143.8 0-943z"/>
			<path class="s0" d="m-60.2 2.1c600.2 200.8 940 0 1542.4 0v943.1c-615.9-202.6-940.1 0-1542.4 0 0 0-600.3-1143.8 0-943.1z"/>
			<path class="s0" d="m-60.2 10.5c600.2 200.7 940 0 1542.4 0v943c-615.9-202.5-940.1 0-1542.4 0 0 0-600.3-1143.8 0-943z"/>
			<path class="s0" d="m-60.2 2.1c600.2 200.8 940 0 1542.4 0v943.1c-615.9-202.6-940.1 0-1542.4 0 0 0-600.3-1143.8 0-943.1z"/>
			<path class="s1" d="m-60.2 19.6c600.2 200.8 940 0 1542.4 0v943.1c-615.9-202.6-940.1 0-1542.4 0 0 0-600.3-1143.8 0-943.1z"/>
		</g>
	</g>
</svg>